<?xml version="1.0" standalone="no"?>
<!DOCTYPE svg PUBLIC "-//W3C//DTD SVG 20010904//EN"
 "http://www.w3.org/TR/2001/REC-SVG-20010904/DTD/svg10.dtd">
<svg version="1.0" xmlns="http://www.w3.org/2000/svg"
 width="310.000000pt" height="310.000000pt" viewBox="0 0 310.000000 310.000000"
 preserveAspectRatio="xMidYMid meet">
<metadata>
Created by potrace 1.11, written by Peter Selinger 2001-2013
</metadata>
<g transform="translate(0.000000,310.000000) scale(0.100000,-0.100000)"
fill="#000000" stroke="none">
<path d="M6 3078 c-3 -13 -6 -233 -6 -490 l0 -468 144 0 c141 0 144 0 149 23
2 12 17 76 32 142 55 246 65 292 80 369 8 44 13 82 10 84 -3 3 -35 11 -72 18
l-68 12 78 1 c53 1 79 5 81 14 11 42 66 294 66 305 0 9 -55 12 -244 12 l-244
0 -6 -22z"/>
<path d="M526 3003 c-10 -54 -27 -127 -37 -162 -10 -35 -19 -65 -19 -68 0 -4
2172 6 2177 10 2 2 -17 91 -49 225 l-22 92 -1015 0 -1016 0 -19 -97z"/>
<path d="M2615 3083 c5 -22 53 -237 63 -277 7 -29 9 -30 67 -28 65 2 54 -11
-18 -23 -30 -5 -37 -10 -33 -23 3 -9 15 -60 26 -112 11 -52 26 -121 34 -152
12 -52 12 -58 -3 -59 -12 0 -11 -3 5 -10 16 -8 24 -30 37 -101 13 -68 15 -93
6 -99 -8 -4 -5 -13 10 -28 11 -11 21 -25 21 -31 0 -6 52 -10 135 -10 l135 0 0
485 0 485 -244 0 c-227 0 -244 -1 -241 -17z"/>
<path d="M1656 2753 c-1 -2 -267 -3 -590 -3 l-587 -1 -10 -26 c-12 -32 -30
-107 -36 -153 -2 -19 -8 -48 -13 -65 -5 -16 -12 -46 -15 -65 -3 -19 -19 -89
-36 -155 -17 -66 -33 -131 -35 -143 l-5 -24 1223 7 c673 3 1226 9 1230 13 4 4
-4 50 -17 102 -42 168 -83 353 -95 425 -7 39 -16 75 -22 80 -8 8 -984 16 -992
8z m-39 -269 c-3 -3 -12 -4 -19 -1 -8 3 -5 6 6 6 11 1 17 -2 13 -5z"/>
<path d="M2699 2106 c-2 -3 -535 -7 -1183 -10 -648 -2 -1182 -8 -1186 -13 -4
-4 -20 -67 -34 -139 -14 -72 -28 -137 -31 -145 -6 -16 -36 -155 -69 -321 -24
-118 -41 -153 -71 -142 -17 7 -17 10 10 129 8 33 16 74 20 90 3 17 8 39 10 50
37 152 56 260 46 263 -16 5 -13 22 4 22 8 0 17 12 21 28 3 15 14 57 24 95 10
41 14 70 8 73 -6 4 -68 9 -139 12 l-129 5 0 -436 0 -436 43 -5 c23 -3 89 -4
147 -1 420 17 794 25 1100 25 556 -1 1396 -9 1445 -14 49 -4 211 -8 313 -7
l52 1 0 441 0 441 -118 -4 c-64 -2 -122 -7 -128 -11 -11 -6 -10 -20 11 -117
27 -133 27 -133 14 -141 -8 -4 -17 -5 -22 0 -4 4 -19 61 -34 127 -14 65 -28
122 -32 125 -8 9 -85 21 -92 15z m207 -313 c3 -16 10 -39 14 -53 18 -50 70
-293 64 -301 -3 -5 -13 -9 -23 -9 -14 0 -22 14 -34 58 -15 55 -27 113 -32 159
-2 11 -6 32 -11 45 -4 12 -8 32 -9 43 -1 11 -5 35 -9 53 -7 28 -5 32 13 32 14
0 22 -8 27 -27z m100 -419 c4 -23 2 -25 -23 -22 -22 2 -29 10 -34 35 -5 27 -3
32 15 35 23 4 35 -10 42 -48z"/>
<path d="M1332 1174 c-14 -26 -18 -66 -9 -81 5 -8 4 -13 -2 -13 -6 0 -11 -10
-11 -22 0 -13 -4 -28 -8 -35 -9 -14 -115 -20 -482 -28 -135 -3 -360 -10 -500
-15 -140 -5 -270 -10 -287 -10 l-33 0 0 -153 0 -153 647 5 c1205 9 1248 9
1260 -1 7 -5 18 -6 24 -2 13 8 1084 6 1137 -2 l32 -5 0 138 0 138 -47 1 c-27
0 -111 4 -188 7 -77 4 -302 9 -500 12 -198 3 -362 5 -365 6 -3 0 -38 1 -77 1
-41 0 -76 4 -80 11 -4 7 133 8 478 3 551 -8 711 -14 720 -28 4 -7 9 -6 13 1 4
6 16 11 27 11 10 0 19 4 19 8 0 5 -73 12 -162 16 -132 6 -924 24 -1095 26 -42
0 -43 1 -43 35 0 30 -5 37 -39 55 -22 11 -42 24 -46 30 -8 13 -162 13 -170 0
-3 -5 -19 -18 -34 -29 l-29 -21 -32 50 c-18 28 -35 49 -37 46 -3 -2 7 -22 21
-43 l26 -38 -32 -8 c-56 -15 -79 -27 -73 -37 3 -6 -1 -18 -11 -27 -16 -16 -16
-16 -9 7 19 66 30 90 42 90 7 0 13 5 13 10 0 6 -9 10 -19 10 -11 0 -23 5 -27
12 -4 6 -3 8 3 5 6 -4 19 1 29 9 19 15 19 16 0 9 -11 -3 -23 0 -27 6 -5 8 -10
6 -17 -7z m288 -68 c0 -16 -30 -23 -73 -17 -22 3 -25 6 -16 17 16 19 89 19 89
0z m58 2 c19 -19 14 -26 -13 -20 -14 2 -25 11 -25 18 0 17 22 18 38 2z m-225
-102 c7 -16 -1 -26 -20 -26 -7 0 -13 9 -13 20 0 23 25 27 33 6z m295 -3 c5
-17 -26 -29 -40 -15 -6 6 -7 15 -3 22 9 14 37 9 43 -7z m-458 -25 c0 -6 -7 -8
-15 -4 -8 3 -15 1 -15 -4 0 -6 -16 -10 -36 -10 -19 0 -33 -4 -29 -9 7 -13 -68
-1 -76 12 -4 5 -8 4 -11 -3 -2 -7 -18 -13 -36 -12 -17 0 -34 -3 -37 -8 -3 -4
-38 -6 -77 -4 -40 2 -66 0 -58 -4 16 -8 23 -42 9 -42 -5 0 -9 3 -9 8 0 4 -7
15 -15 26 -14 19 -75 33 -75 17 0 -13 -63 -7 -67 5 -3 8 -18 9 -48 3 -25 -5
-52 -6 -62 -2 -11 4 -14 3 -9 -5 5 -8 -2 -12 -21 -12 -22 0 -25 2 -13 10 8 5
12 10 7 10 -4 0 -16 -6 -27 -12 -16 -10 -22 -10 -32 1 -11 12 -10 13 5 8 11
-4 16 -3 12 3 -8 13 -45 13 -65 0 -12 -8 -12 -10 -1 -10 8 0 12 -2 9 -5 -3 -3
-24 -2 -46 3 -32 8 -42 7 -46 -4 -3 -8 -13 -14 -23 -14 -14 0 -15 2 -5 9 14 9
-29 21 -74 21 -26 0 -32 -14 -11 -24 6 -3 -10 -4 -38 0 -27 3 -83 5 -123 5
-66 -1 -83 5 -65 22 3 4 11 3 17 -3 7 -5 28 -5 51 0 50 10 208 18 545 26 146
4 267 8 268 10 11 8 342 1 342 -8z m-593 -44 c-3 -3 -12 -4 -19 -1 -8 3 -5 6
6 6 11 1 17 -2 13 -5z m27 -13 c-10 -10 -21 -17 -23 -15 -6 6 20 34 32 34 6 0
2 -8 -9 -19z m401 9 c3 -5 1 -10 -4 -10 -6 0 -11 5 -11 10 0 6 2 10 4 10 3 0
8 -4 11 -10z m163 -17 c6 -6 12 -14 12 -17 0 -3 -43 -6 -95 -6 -52 0 -95 4
-95 9 0 5 27 8 60 8 42 -2 59 2 56 9 -6 15 45 13 62 -3z m302 7 c-20 -13 -50
-13 -50 0 0 6 15 10 33 10 24 0 28 -3 17 -10z m553 3 c-7 -2 -19 -2 -25 0 -7
3 -2 5 12 5 14 0 19 -2 13 -5z m277 -3 c0 -5 -4 -10 -10 -10 -5 0 -10 5 -10
10 0 6 5 10 10 10 6 0 10 -4 10 -10z m-1440 -10 c0 -5 -7 -7 -15 -4 -8 4 -15
8 -15 10 0 2 7 4 15 4 8 0 15 -4 15 -10z m84 -5 c-4 -9 -19 -15 -40 -15 -43 0
-44 17 -1 23 17 2 35 5 39 5 4 1 5 -5 2 -13z m36 11 c0 -3 -4 -8 -10 -11 -5
-3 -10 -1 -10 4 0 6 5 11 10 11 6 0 10 -2 10 -4z m835 -6 c-3 -5 -10 -10 -16
-10 -5 0 -9 5 -9 10 0 6 7 10 16 10 8 0 12 -4 9 -10z m-1435 -4 c0 -3 -4 -8
-10 -11 -5 -3 -10 -1 -10 4 0 6 5 11 10 11 6 0 10 -2 10 -4z m305 -6 c3 -5 2
-10 -4 -10 -5 0 -13 5 -16 10 -3 6 -2 10 4 10 5 0 13 -4 16 -10z m-376 -4 c-2
-2 -34 -7 -71 -11 -46 -4 -68 -3 -68 4 0 7 27 11 72 11 39 0 69 -2 67 -4z
m1978 -2 c-3 -3 -12 -4 -19 -1 -8 3 -5 6 6 6 11 1 17 -2 13 -5z m83 -4 c0 -6
-11 -8 -27 -4 -40 10 -41 14 -5 14 18 0 32 -5 32 -10z m80 0 c0 -5 -6 -10 -14
-10 -8 0 -18 5 -21 10 -3 6 3 10 14 10 12 0 21 -4 21 -10z m-1163 -6 c-3 -3
-12 -4 -19 -1 -8 3 -5 6 6 6 11 1 17 -2 13 -5z m270 0 c-3 -3 -12 -4 -19 -1
-8 3 -5 6 6 6 11 1 17 -2 13 -5z m-74 -35 c-8 -8 -16 -8 -30 0 -16 9 -14 10
12 11 21 0 26 -3 18 -11z m1197 1 c0 -5 -4 -10 -10 -10 -5 0 -10 5 -10 10 0 6
5 10 10 10 6 0 10 -4 10 -10z m-1627 -7 c-7 -2 -21 -2 -30 0 -10 3 -4 5 12 5
17 0 24 -2 18 -5z m357 -11 c0 -5 6 -9 13 -10 15 -1 167 -2 187 -1 98 4 496
-5 500 -11 3 -5 35 -12 70 -15 79 -7 91 -15 22 -15 -29 0 -52 -4 -52 -10 0 -5
-7 -10 -15 -10 -8 0 -15 4 -15 9 0 14 -41 0 -47 -15 -6 -16 -103 -20 -103 -5
0 5 -41 9 -91 10 -95 2 -121 7 -98 22 10 6 9 8 -6 8 -41 1 -55 5 -55 15 0 6
-5 5 -12 -2 -7 -7 -25 -12 -42 -12 -16 0 -26 -3 -22 -7 9 -10 46 -11 52 -2 2
5 15 4 28 -1 13 -5 27 -6 30 -3 3 4 6 1 6 -5 0 -8 -24 -12 -74 -12 -43 0 -76
-4 -78 -10 -5 -15 -131 -17 -135 -3 -3 7 -14 8 -32 3 -16 -4 -34 -4 -41 0 -7
5 -21 3 -31 -3 -12 -8 -36 -7 -86 2 -59 12 -75 11 -115 -3 -58 -19 -193 -19
-209 1 -6 7 -16 10 -22 6 -13 -8 -15 -8 -100 -17 -50 -4 -57 -3 -47 9 9 11 7
12 -12 8 -13 -2 -30 -7 -38 -10 -31 -12 -80 0 -80 19 0 5 5 6 10 3 6 -3 16 -3
22 2 7 4 26 7 43 6 29 -2 29 -2 5 6 -23 8 -23 9 10 11 27 1 31 3 16 9 -17 7
-18 8 -3 14 18 7 51 -19 42 -33 -8 -13 25 -21 43 -10 14 9 13 10 -5 5 -13 -4
-23 -2 -23 3 0 17 27 33 56 32 16 0 55 1 86 3 31 2 55 0 52 -4 -2 -4 9 -7 26
-7 17 1 36 -5 43 -13 9 -11 25 -13 62 -8 28 3 42 7 33 9 -24 4 -29 5 -58 18
-22 10 -16 11 40 11 129 -2 220 3 220 12 0 5 7 9 15 9 8 0 15 -4 15 -8z m770
-16 c0 -11 -19 -15 -25 -6 -3 5 1 10 9 10 9 0 16 -2 16 -4z m96 -3 c-7 -7 -77
-5 -85 2 -2 3 17 5 44 5 27 0 45 -3 41 -7z m81 1 c-3 -3 -12 -4 -19 -1 -8 3
-5 6 6 6 11 1 17 -2 13 -5z m56 -1 c-7 -2 -19 -2 -25 0 -7 3 -2 5 12 5 14 0
19 -2 13 -5z m183 0 c-7 -7 -77 -5 -85 3 -2 2 17 4 44 4 27 0 45 -3 41 -7z
m64 -3 c0 -5 -4 -10 -10 -10 -5 0 -10 5 -10 10 0 6 5 10 10 10 6 0 10 -4 10
-10z m210 -7 c2 -2 -37 -3 -89 -1 -51 1 -95 6 -98 11 -5 8 178 -2 187 -10z
m-2657 -10 c20 -17 20 -17 14 1 -6 15 -4 17 15 12 13 -3 40 -9 61 -12 74 -13
34 -19 -128 -21 -91 -1 -163 2 -160 6 2 5 30 8 60 6 31 -1 58 1 60 6 3 4 14 5
25 2 11 -3 20 0 20 6 0 16 10 14 33 -6z m247 2 c0 -10 -10 -15 -27 -15 -21 0
-24 3 -13 9 8 6 18 7 22 5 4 -3 8 0 8 5 0 6 2 11 5 11 3 0 5 -7 5 -15z m125 5
c-9 -14 8 -13 23 2 9 9 12 9 12 -1 0 -11 3 -11 15 -1 12 10 19 10 27 2 15 -15
31 -15 22 0 -5 7 -3 8 5 3 26 -15 -8 -27 -88 -29 -86 -3 -102 4 -48 22 17 5
33 10 35 11 2 1 0 -3 -3 -9z m2328 3 c-7 -2 -19 -2 -25 0 -7 3 -2 5 12 5 14 0
19 -2 13 -5z m-516 -14 c-9 -5 -26 -8 -36 -4 -12 3 -21 0 -25 -10 -7 -20 -62
-20 -70 1 -3 8 -2 12 4 9 6 -3 10 -3 10 2 0 4 30 9 68 10 51 2 63 0 49 -8z
m83 -1 c0 -4 -6 -8 -14 -8 -8 0 -17 4 -20 8 -2 4 4 8 15 8 10 0 19 -4 19 -8z
m120 1 c14 -1 3 -5 -25 -8 -58 -7 -89 -2 -59 10 10 5 28 6 39 4 11 -3 31 -5
45 -6z m-2225 -9 c-3 -5 -11 -10 -16 -10 -6 0 -7 5 -4 10 3 6 11 10 16 10 6 0
7 -4 4 -10z m132 4 c-3 -3 -12 -4 -19 -1 -8 3 -5 6 6 6 11 1 17 -2 13 -5z
m1927 -9 c3 -8 1 -15 -4 -15 -6 0 -10 7 -10 15 0 8 2 15 4 15 2 0 6 -7 10 -15z
m-2126 -21 c6 -1 21 -2 32 -2 11 -1 20 -6 20 -11 0 -4 -25 -8 -55 -7 -30 1
-55 4 -55 9 0 4 -7 7 -16 7 -8 0 -13 -4 -10 -8 2 -4 -4 -8 -15 -8 -33 0 -21
15 19 21 20 4 42 8 47 9 6 2 12 0 15 -3 3 -3 11 -6 18 -7z m196 -7 c4 -15 2
-16 -10 -6 -7 6 -27 9 -42 7 -16 -2 -29 1 -29 7 0 6 17 10 38 10 28 0 39 -4
43 -18z m1679 9 c4 -10 1 -13 -9 -9 -7 3 -14 9 -14 14 0 14 17 10 23 -5z m67
8 c0 -8 -19 -13 -24 -6 -3 5 1 9 9 9 8 0 15 -2 15 -3z m233 -1 c-7 -2 -19 -2
-25 0 -7 3 -2 5 12 5 14 0 19 -2 13 -5z m137 3 c0 -3 -4 -8 -10 -11 -5 -3 -10
-1 -10 4 0 6 5 11 10 11 6 0 10 -2 10 -4z m285 -7 c15 0 16 -2 6 -8 -8 -5 -21
-7 -30 -6 -9 2 -45 4 -81 5 -48 1 -60 4 -45 11 11 5 45 6 75 4 30 -3 64 -6 75
-6z m-2495 -3 c0 -11 -19 -15 -25 -6 -3 5 1 10 9 10 9 0 16 -2 16 -4z m235 -6
c3 -5 1 -11 -5 -15 -5 -3 -10 -1 -10 5 0 6 -5 8 -12 4 -19 -12 -58 -11 -48 1
11 13 68 17 75 5z m-658 -6 c-10 -10 -87 -13 -87 -3 0 5 21 9 47 9 25 0 44 -3
40 -6z m53 -2 c0 -4 -9 -8 -19 -8 -11 0 -17 4 -15 8 3 4 12 8 20 8 8 0 14 -4
14 -8z m124 0 c2 -4 -4 -8 -15 -8 -10 0 -19 4 -19 8 0 4 6 8 14 8 8 0 17 -4
20 -8z m1056 -2 c0 -5 -7 -10 -15 -10 -8 0 -15 5 -15 10 0 6 7 10 15 10 8 0
15 -4 15 -10z m1470 0 c0 -5 -8 -10 -17 -10 -15 0 -16 2 -3 10 19 12 20 12 20
0z"/>
<path d="M1050 791 c0 -6 5 -13 10 -16 6 -3 10 1 10 9 0 9 -4 16 -10 16 -5 0
-10 -4 -10 -9z"/>
<path d="M1585 780 c3 -5 11 -10 16 -10 6 0 7 5 4 10 -3 6 -11 10 -16 10 -6 0
-7 -4 -4 -10z"/>
<path d="M1650 778 c0 -10 19 -9 45 2 16 7 14 8 -12 7 -18 -1 -33 -5 -33 -9z"/>
<path d="M2100 760 c0 -6 7 -10 15 -10 8 0 15 2 15 4 0 2 -7 6 -15 10 -8 3
-15 1 -15 -4z"/>
<path d="M2408 773 c6 -2 18 -2 25 0 6 3 1 5 -13 5 -14 0 -19 -2 -12 -5z"/>
<path d="M228 642 l-228 -2 0 -89 0 -88 78 4 c59 3 73 1 60 -7 -10 -6 -24 -10
-30 -9 -7 1 -34 1 -60 0 -37 -1 -48 -5 -48 -17 0 -16 25 -16 288 -10 390 8
2124 8 2505 0 l307 -7 0 110 c0 85 -3 112 -14 116 -13 5 -2407 5 -2858 -1z
m782 -32 c0 -5 -4 -10 -10 -10 -5 0 -10 5 -10 10 0 6 5 10 10 10 6 0 10 -4 10
-10z m38 -144 c3 -3 -192 -5 -434 -4 l-439 3 330 5 c363 6 534 4 543 -4z m381
-2 c2 -2 -81 -3 -185 -2 -137 1 -166 3 -104 7 87 6 282 3 289 -5z m996 3 c39
-2 -45 -3 -185 -3 -140 -1 -232 2 -205 5 47 6 229 5 390 -2z m-585 -15 c0 -14
-2 -15 -9 -3 -7 11 -15 12 -33 5 -13 -5 -39 -8 -58 -5 -29 3 -31 5 -15 11 11
4 41 8 68 8 38 1 47 -1 47 -16z m687 12 c-3 -3 -12 -4 -19 -1 -8 3 -5 6 6 6
11 1 17 -2 13 -5z m111 -1 c-10 -2 -26 -2 -35 0 -10 3 -2 5 17 5 19 0 27 -2
18 -5z m89 1 c-3 -3 -12 -4 -19 -1 -8 3 -5 6 6 6 11 1 17 -2 13 -5z m128 -4
c3 -5 1 -10 -4 -10 -6 0 -11 5 -11 10 0 6 2 10 4 10 3 0 8 -4 11 -10z"/>
<path d="M1950 406 c0 -2 7 -6 15 -10 8 -3 15 -1 15 4 0 6 -7 10 -15 10 -8 0
-15 -2 -15 -4z"/>
<path d="M2805 390 c-15 -6 -9 -9 25 -9 34 0 40 3 25 9 -11 5 -22 9 -25 9 -3
0 -14 -4 -25 -9z"/>
<path d="M2990 390 c-13 -8 -12 -10 3 -10 9 0 17 5 17 10 0 12 -1 12 -20 0z"/>
<path d="M3030 386 c0 -2 16 -6 35 -8 19 -2 35 0 35 4 0 4 -16 8 -35 8 -19 0
-35 -2 -35 -4z"/>
<path d="M1565 311 c-33 -3 -55 -9 -49 -13 6 -4 31 -6 55 -3 24 2 52 4 62 4
10 1 15 6 12 11 -3 6 -9 9 -13 8 -4 -1 -34 -4 -67 -7z"/>
<path d="M785 119 c-297 -3 -595 -7 -662 -8 l-123 -1 0 -55 0 -56 528 3 c290
2 611 4 715 6 l187 3 0 29 c0 24 4 30 21 30 18 0 21 -5 17 -30 l-5 -30 266 0
c146 0 515 -3 819 -7 l552 -6 0 60 0 61 -842 3 c-464 1 -863 3 -888 3 -25 1
-288 -2 -585 -5z"/>
</g>
</svg>
